<svg width="40" height="40" viewBox="0 0 40 40" fill="none" xmlns="http://www.w3.org/2000/svg">
<g transform="rotate(270 20 20)">
<path d="M19.9957 36.1089L19.5702 34.9486C18.5647 32.222 16.4182 30.5589 13.6915 29.5534L12.5312 29.1279L13.6915 28.7025C16.4182 27.6969 18.5647 25.9372 19.5702 23.2106L19.9957 22.0503L20.4211 23.2106C21.4267 25.9372 23.5732 27.6969 26.2998 28.7025L27.4601 29.1279L26.2998 29.5534C23.5732 30.5589 21.4267 32.222 20.4211 34.9486L19.9957 36.1089Z" fill="currentColor"/>
<path d="M19.0664 6.10889C19.0664 14.0954 12.5979 20.5639 4.61133 20.5639" stroke="currentColor" stroke-width="4.6" stroke-miterlimit="10" fill="none"/>
<path d="M20.9453 6.10889C20.9453 14.0954 27.4138 20.5639 35.4003 20.5639" stroke="currentColor" stroke-width="4.6" stroke-miterlimit="10" fill="none"/>
</g>
</svg>
